VIDEO INFO:


Format                           : Matroska
Format version                   : Version 2
File size                        : 4.37 GiB
Duration                         : 1h 37mn
Overall bit rate                 : 6 442 Kbps
Encoded date                     : UTC 2011-08-14 21:08:27
Writing application              : mkvmerge v4.9.1 ('Ich will') gemaakt op Jul 11 2011 23:53:15
Writing library                  : libebml v1.2.1 + libmatroska v1.1.1

Video
ID                               : 1
Format                           : AVC
Format/Info                      : Advanced Video Codec
Format profile                   : Main@L5.1
Format settings, CABAC           : Yes
Format settings, ReFrames        : 8 frames
Codec ID                         : V_MPEG4/ISO/AVC
Duration                         : 1h 37mn
Bit rate                         : 5 801 Kbps
Width                            : 1 280 pixels
Height                           : 688 pixels
Display aspect ratio             : 1.860
Frame rate                       : 23.976 fps
Color space                      : YUV
Chroma subsampling               : 4:2:0
Bit depth                        : 8 bits
Scan type                        : Progressive
Bits/(Pixel*Frame)               : 0.275
Stream size                      : 3.85 GiB (88%)
Writing library                  : x264 core 54
Encoding settings                : cabac=1 / ref=5 / deblock=1:-2:-2 / analyse=0x1:0 / me=umh / subme=7 / brdo=1 / mixed_ref=1 / me_range=16 / chroma_me=1 / trellis=1 / 8x8dct=0 / cqm=0 / deadzone=21,11 / chroma_qp_offset=0 / threads=2 / nr=0 / decimate=1 / mbaff=0 / bframes=3 / b_pyramid=1 / b_adapt=1 / b_bias=0 / direct=1 / wpredb=1 / bime=1 / keyint=250 / keyint_min=25 / scenecut=40(pre) / rc=2pass / bitrate=5801 / ratetol=1.0 / rceq='blurCplx^(1-qComp)' / qcomp=0.60 / qpmin=10 / qpmax=51 / qpstep=4 / cplxblur=20.0 / qblur=0.5 / ip_ratio=1.40 / pb_ratio=1.30
Language                         : English

Audio
ID                               : 2
Format                           : AC-3
Format/Info                      : Audio Coding 3
Mode extension                   : CM (complete main)
Codec ID                         : A_AC3
Duration                         : 1h 37mn
Bit rate mode                    : Constant
Bit rate                         : 640 Kbps
Channel(s)                       : 6 channels
Channel positions                : Front: L C R, Side: L R, LFE
Sampling rate                    : 48.0 KHz
Bit depth                        : 16 bits
Compression mode                 : Lossy
Stream size                      : 445 MiB (10%)
Language                         : English

Text
ID                               : 3
Format                           : UTF-8
Codec ID                         : S_TEXT/UTF8
Codec ID/Info                    : UTF-8 Plain Text
Language                         : Dutch

-------------------------------------

Verenigde Staten
Komedie / Drama
97 minuten

geregisseerd door John Hughes
met Judd Nelson, Emilio Estevez en Molly Ringwald

Een club studenten moet 's ochtends nablijven. Niemand heeft een vriend aan een ander, en ieder zit er om verschillende redenen. De opdracht die ze krijgen is het schrijven van een opstel, onder doodse stilte en zonder van plaats te veranderen. Aan het begin van de ochtend doen ze dat nog maar al snel maken ze er een puinhoop van.

-Ondertiteling (nederlands) in film met de mogelijkheid deze aan/uit te zetten.

Veel plezier met deze geweldige klassieker.